# xmcd
# 
# Track frame offsets:
#     150
#     16445
#     38655
#     57955
#     77862
#     101882
#     117590
#     137857
#     159425
#     181202
#     205407
#     220905
#     239462
# 
# Disc length: 3558
# 
# Revision: 0
# Processed by: cddbd v1.5.2PL0 Copyright (c) Steve Scherf et al.
# Submitted via: fre:ac v1.0.17
# 
DISCID=bb0de40d
DTITLE=Pandora's Box - Thirteen
DYEAR=1990
DGENRE=Country
TTITLE0=Play the Hand You're Dealt
TTITLE1=Falling For You
TTITLE2=One of Those Nights
TTITLE3=Where Do I Go From Here
TTITLE4=Between the Toss and the Catch
TTITLE5=Jesus Freaks and Philosophers
TTITLE6=You Could Have It All
TTITLE7=Queen Mary
TTITLE8=To These Times
TTITLE9=The Shadow of the Rook
TTITLE10=Looking at a Field of Flowers
TTITLE11=Roses in the Winter
TTITLE12=Promise Never Kept
EXTD=
EXTT0=
EXTT1=
EXTT2=
EXTT3=
EXTT4=
EXTT5=
EXTT6=
EXTT7=
EXTT8=
EXTT9=
EXTT10=
EXTT11=
EXTT12=
PLAYORDER=
